<svg width="32.000000" height="32.000000" viewBox="0 0 32 32" fill="none" xmlns="http://www.w3.org/2000/svg" xmlns:xlink="http://www.w3.org/1999/xlink">
	<desc>
			Created with Pixso.
	</desc>
	<defs>
		<clipPath id="clip763_3081">
			<rect id="Program Icon" rx="0.000000" width="31.750000" height="31.750000" transform="translate(0.125000 0.125000)" fill="white" fill-opacity="0"/>
		</clipPath>
	</defs>
	<rect id="Program Icon" rx="0.000000" width="31.750000" height="31.750000" transform="translate(0.125000 0.125000)" fill="#FFFFFF" fill-opacity="0"/>
	<g clip-path="url(#clip763_3081)">
		<path id="Vector" d="M4.7 28.53L2.18 0.33L29.81 0.33L27.29 28.52L15.98 31.66L4.7 28.53Z" fill="#1572B6" fill-opacity="1.000000" fill-rule="nonzero"/>
		<path id="Vector" d="M16 29.26L25.13 26.73L27.29 2.64L16 2.64L16 29.26Z" fill="#33A9DC" fill-opacity="1.000000" fill-rule="nonzero"/>
		<path id="Vector" d="M16 12.85L20.57 12.85L20.89 9.31L16 9.31L16 5.85L24.67 5.85L24.58 6.78L23.73 16.31L16 16.31L16 12.85Z" fill="#FFFFFF" fill-opacity="1.000000" fill-rule="nonzero"/>
		<path id="Vector" d="M16.02 21.83L16 21.84L12.15 20.8L11.9 18.04L8.43 18.04L8.92 23.47L16 25.43L16.02 25.43L16.02 21.83Z" fill="#EBEBEB" fill-opacity="1.000000" fill-rule="nonzero"/>
		<path id="Vector" d="M20.28 16.16L19.86 20.79L16 21.84L16 25.43L23.09 23.47L23.14 22.88L23.75 16.16L20.28 16.16Z" fill="#FFFFFF" fill-opacity="1.000000" fill-rule="nonzero"/>
		<path id="Vector" d="M16.01 5.85L16.01 9.31L7.66 9.31L7.59 8.53L7.43 6.78L7.35 5.85L16.01 5.85ZM16 12.85L16 16.31L12.19 16.31L12.12 15.53L11.97 13.78L11.88 12.85L16 12.85Z" fill="#EBEBEB" fill-opacity="1.000000" fill-rule="nonzero"/>
	</g>
</svg>
