<svg width="16.000000" height="16.000000" viewBox="0 0 16 16" fill="none" xmlns="http://www.w3.org/2000/svg" xmlns:xlink="http://www.w3.org/1999/xlink">
	<desc>
			Created with Pixso.
	</desc>
	<defs>
		<clipPath id="clip23_39408">
			<rect id="file-text" rx="0.000000" width="15.000000" height="15.000000" transform="translate(0.500000 0.500000)" fill="white" fill-opacity="0"/>
		</clipPath>
	</defs>
	<rect id="file-text" rx="0.000000" width="15.000000" height="15.000000" transform="translate(0.500000 0.500000)" fill="#FFFFFF" fill-opacity="0"/>
	<g clip-path="url(#clip23_39408)">
		<path id="Vector" d="M4 1.33C3.64 1.33 3.3 1.47 3.05 1.72C2.8 1.97 2.66 2.31 2.66 2.66L2.66 13.33C2.66 13.68 2.8 14.02 3.05 14.27C3.3 14.52 3.64 14.66 4 14.66L12 14.66C12.35 14.66 12.69 14.52 12.94 14.27C13.19 14.02 13.33 13.68 13.33 13.33L13.33 5L9.66 1.33L4 1.33Z" stroke="#1F2937" stroke-opacity="1.000000" stroke-width="1.000000" stroke-linejoin="round"/>
		<path id="Vector" d="M9.33 1.33L9.33 5.33L13.33 5.33" stroke="#1F2937" stroke-opacity="1.000000" stroke-width="1.000000" stroke-linejoin="round" stroke-linecap="round"/>
		<path id="Vector" d="M10.66 8.66L5.33 8.66" stroke="#1F2937" stroke-opacity="1.000000" stroke-width="1.000000" stroke-linejoin="round" stroke-linecap="round"/>
		<path id="Vector" d="M10.66 11.33L5.33 11.33" stroke="#1F2937" stroke-opacity="1.000000" stroke-width="1.000000" stroke-linejoin="round" stroke-linecap="round"/>
		<path id="Vector" d="M6.66 6L5.33 6" stroke="#1F2937" stroke-opacity="1.000000" stroke-width="1.000000" stroke-linejoin="round" stroke-linecap="round"/>
	</g>
</svg>
