<svg width="32.000000" height="32.000000" viewBox="0 0 32 32" fill="none" xmlns="http://www.w3.org/2000/svg" xmlns:xlink="http://www.w3.org/1999/xlink">
	<desc>
			Created with Pixso.
	</desc>
	<defs>
		<clipPath id="clip692_2541">
			<rect id="lucide/heart-handshake" rx="0.000000" width="31.000000" height="31.000000" transform="translate(0.500000 0.500000)" fill="white" fill-opacity="0"/>
		</clipPath>
	</defs>
	<rect id="lucide/heart-handshake" rx="0.000000" width="31.000000" height="31.000000" transform="translate(0.500000 0.500000)" fill="#FFFFFF" fill-opacity="0"/>
	<g clip-path="url(#clip692_2541)">
		<path id="Vector" d="M15.99 6.66C13.99 4.66 12.34 4 9.99 4C8.05 4 6.18 4.77 4.81 6.14C3.43 7.52 2.66 9.38 2.66 11.33C2.66 14.39 4.66 16.73 6.66 18.66L15.99 28L25.33 18.66C27.31 16.71 29.33 14.38 29.33 11.33C29.33 9.38 28.56 7.52 27.18 6.14C25.81 4.77 23.94 4 21.99 4C19.65 4 17.99 4.66 15.99 6.66L12.05 10.61C11.78 10.88 11.56 11.2 11.42 11.55C11.27 11.9 11.19 12.28 11.19 12.66C11.19 13.04 11.27 13.42 11.42 13.77C11.56 14.13 11.78 14.45 12.05 14.72C13.14 15.81 14.89 15.85 16.05 14.81L18.81 12.28C19.5 11.65 20.4 11.3 21.33 11.3C22.27 11.3 23.17 11.65 23.86 12.28L27.81 15.82M23.99 20L21.33 17.33M19.99 24L17.33 21.33" stroke="#000000" stroke-opacity="1.000000" stroke-width="2.666667" stroke-linejoin="round" stroke-linecap="round"/>
	</g>
</svg>
