<svg width="32.000000" height="32.000000" viewBox="0 0 32 32" fill="none" xmlns="http://www.w3.org/2000/svg" xmlns:xlink="http://www.w3.org/1999/xlink">
	<desc>
			Created with Pixso.
	</desc>
	<defs>
		<clipPath id="clip763_3076">
			<rect id="html5-original" rx="0.000000" width="31.750000" height="31.750000" transform="translate(0.125000 0.125000)" fill="white" fill-opacity="0"/>
		</clipPath>
	</defs>
	<rect id="html5-original" rx="0.000000" width="31.750000" height="31.750000" transform="translate(0.125000 0.125000)" fill="#FFFFFF" fill-opacity="0"/>
	<g clip-path="url(#clip763_3076)">
		<path id="Vector" d="M4.75 28.46L2.25 0.41L29.74 0.41L27.23 28.46L15.98 31.58L4.75 28.46Z" fill="#E44D26" fill-opacity="1.000000" fill-rule="nonzero"/>
		<path id="Vector" d="M16 29.2L25.09 26.67L27.23 2.7L16 2.7L16 29.2Z" fill="#F16529" fill-opacity="1.000000" fill-rule="nonzero"/>
		<path id="Vector" d="M16 13.11L11.44 13.11L11.13 9.59L16 9.59L16 6.14L7.37 6.14L7.45 7.07L8.3 16.55L16 16.55L16 13.11ZM16 22.04L15.98 22.05L12.15 21.01L11.9 18.27L8.45 18.27L8.93 23.67L15.98 25.63L16 25.62L16 22.04Z" fill="#EBEBEB" fill-opacity="1.000000" fill-rule="nonzero"/>
		<path id="Vector" d="M15.98 13.11L15.98 16.55L20.22 16.55L19.82 21.01L15.98 22.05L15.98 25.63L23.04 23.67L23.09 23.09L23.9 14.03L23.98 13.11L23.05 13.11L15.98 13.11ZM15.98 6.14L15.98 9.59L24.29 9.59L24.36 8.81L24.52 7.07L24.6 6.14L15.98 6.14Z" fill="#FFFFFF" fill-opacity="1.000000" fill-rule="nonzero"/>
	</g>
</svg>
