<svg width="32.000000" height="32.000000" viewBox="0 0 32 32" fill="none" xmlns="http://www.w3.org/2000/svg" xmlns:xlink="http://www.w3.org/1999/xlink">
	<desc>
			Created with Pixso.
	</desc>
	<defs>
		<clipPath id="clip763_3087">
			<rect id="javascript-original" rx="0.000000" width="31.750000" height="31.750000" transform="translate(0.125000 0.125000)" fill="white" fill-opacity="0"/>
		</clipPath>
	</defs>
	<rect id="javascript-original" rx="0.000000" width="31.750000" height="31.750000" transform="translate(0.125000 0.125000)" fill="#FFFFFF" fill-opacity="0"/>
	<g clip-path="url(#clip763_3087)">
		<path id="Vector" d="M0.35 0.35L31.64 0.35L31.64 31.64L0.35 31.64L0.35 0.35Z" fill="#F0DB4F" fill-opacity="1.000000" fill-rule="nonzero"/>
		<path id="Vector" d="M29.08 24.18C28.85 22.75 27.92 21.55 25.16 20.43C24.21 19.99 23.14 19.68 22.82 18.95C22.71 18.53 22.69 18.29 22.76 18.04C22.97 17.21 23.96 16.95 24.74 17.19C25.25 17.35 25.73 17.74 26.02 18.37C27.37 17.49 27.37 17.5 28.31 16.9C27.96 16.36 27.78 16.11 27.55 15.89C26.74 14.98 25.63 14.51 23.86 14.55L22.94 14.67C22.06 14.89 21.22 15.35 20.72 15.97C19.24 17.66 19.66 20.6 21.47 21.81C23.24 23.14 25.85 23.44 26.18 24.69C26.51 26.22 25.06 26.71 23.63 26.54C22.57 26.32 21.98 25.78 21.34 24.8C20.17 25.48 20.17 25.48 18.96 26.17C19.25 26.79 19.55 27.08 20.03 27.62C22.3 29.92 27.97 29.8 28.99 26.32C29.03 26.2 29.3 25.41 29.08 24.18ZM17.36 14.73L14.43 14.73L14.42 22.3C14.42 23.91 14.5 25.38 14.24 25.84C13.81 26.73 12.71 26.62 12.2 26.44C11.68 26.19 11.42 25.83 11.12 25.32C11.04 25.18 10.97 25.06 10.95 25.05L8.57 26.51C8.97 27.32 9.55 28.03 10.3 28.49C11.41 29.16 12.91 29.36 14.48 29C15.5 28.7 16.38 28.09 16.84 27.15C17.51 25.92 17.37 24.43 17.36 22.79C17.38 20.11 17.36 17.42 17.36 14.73Z" fill="#323330" fill-opacity="1.000000" fill-rule="nonzero"/>
	</g>
</svg>
