<svg width="152.000000" height="48.000000" viewBox="0 0 152 48" fill="none" xmlns="http://www.w3.org/2000/svg" xmlns:xlink="http://www.w3.org/1999/xlink">
	<desc>
			Created with Pixso.
	</desc>
	<defs>
		<clipPath id="clip3_345">
			<rect id="logo" rx="0.000000" width="47.272728" height="47.272728" transform="translate(0.363636 0.363636)" fill="white" fill-opacity="0"/>
		</clipPath>
	</defs>
	<rect id="logo" rx="0.000000" width="47.272728" height="47.272728" transform="translate(0.363636 0.363636)" fill="#FFFFFF" fill-opacity="0"/>
	<g clip-path="url(#clip3_345)">
		<path id="Vector" d="M24.64 46.46C24.08 46.46 21.66 46.46 21.66 46.46C21.66 46.46 22.25 46.16 22.34 45.54C22.55 44.09 22.79 42.63 22.86 41.17C22.94 39.56 22.87 37.95 22.81 36.34C22.78 35.6 22.66 34.87 22.55 34.13C22.35 32.88 22.18 31.61 21.91 30.37C21.56 28.77 21.12 27.2 20.72 25.61C20.29 23.92 19.86 22.23 19.44 20.54C19.2 19.57 18.98 18.61 18.74 17.65C18.35 16.05 17.94 14.46 17.54 12.87C17.28 11.81 17.03 10.74 16.77 9.68C16.57 8.88 16.36 8.09 16.16 7.3C16.15 7.26 16.15 7.21 16.14 7.17C16.19 7.2 16.24 7.22 16.29 7.24C17.23 7.72 18.15 8.24 19.12 8.65C19.74 8.91 20.55 8.21 20.94 7.39C21.52 6.16 22.18 4.98 22.81 3.77C23.17 3.07 23.52 2.36 23.88 1.67C23.9 1.61 24.02 1.54 24.04 1.56C24.12 1.61 24.19 1.69 24.23 1.77C24.48 2.24 24.72 2.72 24.96 3.19C25.42 4.09 25.89 4.97 26.34 5.87C26.67 6.52 26.87 7.25 27.29 7.83C27.88 8.65 28.66 9.01 29.78 8.35C30.46 7.95 31.16 7.57 31.85 7.18C31.86 7.17 31.88 7.17 31.9 7.17C31.9 7.2 31.9 7.22 31.9 7.25C31.73 7.91 31.57 8.58 31.4 9.24C31.2 10.04 31 10.84 30.8 11.64C30.06 14.56 29.31 17.47 28.57 20.39C28.27 21.55 27.97 22.7 27.68 23.86C27.56 24.35 27.44 24.84 27.32 25.32C27.08 26.26 26.83 27.19 26.6 28.13C26.3 29.37 26.01 30.61 25.74 31.86C25.6 32.49 25.51 33.12 25.4 33.76C25.33 34.17 25.27 34.58 25.22 34.99C25.14 35.67 25.06 36.35 25.02 37.03C24.97 37.65 24.95 38.28 24.95 38.91C24.96 39.69 24.96 40.47 25.02 41.25C25.09 42.21 25.19 43.18 25.32 44.13C25.39 44.67 25.57 45.19 25.7 45.71C25.89 46.48 26.41 46.46 26.41 46.46L24.64 46.46Z" fill="#EF4444" fill-opacity="1.000000" fill-rule="nonzero"/>
		<path id="Vector" d="M28.72 33.09C28.73 30.76 29.56 28.74 30.38 26.73C30.87 25.53 31.36 24.34 31.86 23.14C32.36 21.95 32.88 20.77 33.38 19.58C33.77 18.65 34.14 17.71 34.53 16.79C34.8 16.13 35.1 15.49 35.4 14.85C35.41 14.83 35.52 14.81 35.54 14.84C35.6 14.91 35.67 14.99 35.69 15.08C35.88 15.87 36.29 16.56 37.08 16.76C37.59 16.9 38.2 16.74 38.75 16.62C40.16 16.3 41.56 15.92 42.96 15.56C43.14 15.52 43.3 15.42 43.48 15.39C44.02 15.28 44.05 15.39 43.76 16.27C43.59 16.79 43.45 17.32 43.31 17.84C43.11 18.6 42.92 19.36 42.73 20.12C42.59 20.7 42.31 21.32 42.39 21.88C42.5 22.62 42.96 23.26 43.81 23.45C44.09 23.52 44.36 23.63 44.63 23.72C44.65 23.73 44.66 23.75 44.68 23.76C44.63 23.82 44.58 23.89 44.52 23.94C42.46 25.69 40.4 27.44 38.34 29.19C37.42 29.98 36.45 30.71 35.6 31.56C34.45 32.71 34.22 34.13 34.63 35.67C34.69 35.9 34.77 36.14 34.76 36.37C34.76 36.41 34.42 36.5 34.24 36.49C32.92 36.42 31.53 36.56 30.3 36.17C28.92 35.73 28.75 34.3 28.72 33.09L28.72 33.09Z" fill="#EF4444" fill-opacity="1.000000" fill-rule="nonzero"/>
		<path id="Vector" d="M19.31 32.38C19.35 33.66 19.3 34.77 18.52 35.65C18.27 35.93 17.86 36.2 17.5 36.24C16.3 36.38 15.08 36.48 13.87 36.49C12.63 36.5 13.47 35.64 13.53 35.3C13.81 33.45 13.17 32.03 11.75 30.87C10.21 29.61 8.7 28.31 7.18 27.03C6.09 26.11 5 25.18 3.91 24.27C3.76 24.14 3.6 24.02 3.45 23.9C3.41 23.86 3.39 23.81 3.36 23.77C3.53 23.71 3.71 23.62 3.89 23.58C4.94 23.31 5.91 22.44 5.56 21.17C5.35 20.39 5.21 19.59 5.01 18.8C4.71 17.65 4.39 16.51 4.07 15.36C4.24 15.37 4.41 15.35 4.56 15.39C5.04 15.5 5.51 15.62 5.98 15.75C6.98 16.03 7.98 16.32 8.98 16.59C9.9 16.84 10.88 17.12 11.64 16.36C12.06 15.94 12.23 15.26 12.51 14.7C12.54 14.66 12.57 14.62 12.6 14.58C12.61 14.62 12.62 14.66 12.64 14.69C13.1 15.8 13.56 16.91 14.03 18.01C14.33 18.71 14.63 19.42 14.93 20.12C15.35 21.12 15.79 22.12 16.18 23.14C17.15 25.67 18.1 28.2 19.05 30.74C19.09 30.85 19.11 30.98 19.13 31.1C19.2 31.58 19.27 32.06 19.31 32.38L19.31 32.38Z" fill="#EF4444" fill-opacity="1.000000" fill-rule="nonzero"/>
	</g>
	<path id="Klyonov" d="M57.51 15.27L57.51 32.72L61.2 32.72L61.2 27.76L63.02 25.55L67.8 32.72L72.21 32.72L65.66 23.08L72.14 15.27L67.71 15.27L61.43 22.96L61.2 22.96L61.2 15.27L57.51 15.27ZM77.74 32.72L77.74 15.27L74.11 15.27L74.11 32.72L77.74 32.72ZM97.01 32.13Q98.46 32.98 100.45 32.98C101.77 32.98 102.91 32.7 103.87 32.13C104.84 31.57 105.58 30.78 106.1 29.76C106.63 28.75 106.89 27.57 106.89 26.23Q106.89 24.2 106.1 22.68C105.58 21.67 104.84 20.88 103.87 20.31C102.91 19.75 101.77 19.46 100.45 19.46C99.12 19.46 97.98 19.75 97.01 20.31C96.05 20.88 95.31 21.67 94.79 22.68C94.26 23.69 94 24.88 94 26.23C94 27.57 94.26 28.75 94.79 29.76Q95.23 30.62 95.88 31.27Q96.39 31.76 97.01 32.13ZM113 32.72L113 25.15Q113.01 24.31 113.32 23.71C113.53 23.31 113.82 23 114.19 22.79C114.56 22.58 114.99 22.48 115.48 22.48C116.21 22.48 116.78 22.71 117.19 23.16C117.61 23.61 117.81 24.23 117.81 25.03L117.81 32.72L121.44 32.72L121.44 24.39Q121.44 22.86 120.88 21.76C120.5 21.02 119.97 20.46 119.3 20.06L119.29 20.05Q118.28 19.46 116.92 19.46C115.95 19.46 115.12 19.69 114.44 20.13C113.76 20.58 113.27 21.18 112.98 21.94L112.83 21.94L112.83 19.63L109.37 19.63L109.37 32.72L113 32.72ZM126.9 32.13C127.87 32.7 129.01 32.98 130.33 32.98Q132.32 32.98 133.76 32.13C134.73 31.57 135.47 30.78 135.99 29.76C136.52 28.75 136.78 27.57 136.78 26.23C136.78 24.88 136.52 23.69 135.99 22.68C135.47 21.67 134.73 20.88 133.76 20.31C132.8 19.75 131.66 19.46 130.33 19.46C129.01 19.46 127.87 19.75 126.9 20.31C125.94 20.88 125.2 21.67 124.68 22.68C124.15 23.69 123.89 24.88 123.89 26.23C123.89 27.57 124.15 28.75 124.68 29.76Q125.12 30.62 125.77 31.27Q126.27 31.76 126.9 32.13ZM81.72 37.52Q82.32 37.63 83.01 37.63Q84.36 37.63 85.31 37.2Q85.94 36.92 86.42 36.48Q86.68 36.25 86.89 35.98C87.31 35.46 87.64 34.84 87.89 34.14L92.97 19.63L89.13 19.63L86.39 29.25L86.26 29.25L83.55 19.63L79.73 19.63L84.43 33.1L84.21 33.65C84.05 34.06 83.85 34.35 83.59 34.52C83.34 34.69 83.04 34.77 82.7 34.76C82.36 34.75 81.97 34.68 81.55 34.55L80.73 37.26C80.99 37.36 81.32 37.45 81.72 37.52ZM146.46 32.72L151.04 19.63L147.2 19.63L144.49 29L144.35 29L141.63 19.63L137.8 19.63L142.37 32.72L146.46 32.72ZM101.97 29.65C101.57 30 101.07 30.17 100.46 30.17Q99.76 30.17 99.24 29.87Q99.07 29.77 98.93 29.65C98.52 29.31 98.21 28.84 98 28.24C97.79 27.64 97.69 26.96 97.69 26.2C97.69 25.44 97.79 24.76 98 24.17C98.21 23.57 98.52 23.1 98.93 22.75Q99.09 22.62 99.26 22.52Q99.78 22.23 100.46 22.23C101.07 22.23 101.57 22.4 101.97 22.75C102.37 23.1 102.68 23.57 102.88 24.17Q103.2 25.06 103.2 26.2Q103.2 27.34 102.88 28.24C102.68 28.84 102.37 29.31 101.97 29.65ZM131.86 29.65C131.46 30 130.95 30.17 130.35 30.17C129.74 30.17 129.23 30 128.82 29.65C128.41 29.31 128.1 28.84 127.89 28.24C127.68 27.64 127.58 26.96 127.58 26.2Q127.58 25.06 127.89 24.17C128.1 23.57 128.41 23.1 128.82 22.75C129.23 22.4 129.74 22.23 130.35 22.23C130.95 22.23 131.46 22.4 131.86 22.75C132.26 23.1 132.57 23.57 132.77 24.17C132.98 24.76 133.09 25.44 133.09 26.2C133.09 26.96 132.98 27.64 132.77 28.24C132.57 28.84 132.26 29.31 131.86 29.65Z" fill="#EF4444" fill-opacity="1.000000" fill-rule="evenodd"/>
</svg>
