<svg width="32.000000" height="32.000000" viewBox="0 0 32 32" fill="none" xmlns="http://www.w3.org/2000/svg" xmlns:xlink="http://www.w3.org/1999/xlink">
	<desc>
			Created with Pixso.
	</desc>
	<defs>
		<clipPath id="clip692_2535">
			<rect id="lucide/message-circle" rx="0.000000" width="30.666666" height="30.666666" transform="translate(0.666667 0.666667)" fill="white" fill-opacity="0"/>
		</clipPath>
	</defs>
	<rect id="lucide/message-circle" rx="0.000000" width="30.666666" height="30.666666" transform="translate(0.666667 0.666667)" fill="#FFFFFF" fill-opacity="0"/>
	<g clip-path="url(#clip692_2535)">
		<path id="Vector" d="M18.78 27.66C21.57 27 24.02 25.36 25.7 23.05C27.39 20.74 28.19 17.9 27.97 15.05C27.75 12.2 26.51 9.52 24.49 7.5C22.47 5.48 19.79 4.24 16.94 4.02C14.09 3.8 11.25 4.6 8.94 6.29C6.63 7.97 4.99 10.42 4.33 13.21C3.67 15.99 4.02 18.92 5.33 21.46L2.66 29.33L10.53 26.66C13.07 27.97 16 28.32 18.78 27.66Z" stroke="#000000" stroke-opacity="1.000000" stroke-width="2.666667" stroke-linejoin="round"/>
	</g>
</svg>
