<svg width="1636.247803" height="217.654663" viewBox="0 0 1636.25 217.655" fill="none" xmlns="http://www.w3.org/2000/svg" xmlns:xlink="http://www.w3.org/1999/xlink">
	<desc>
			Created with Pixso.
	</desc>
	<defs/>
	<g opacity="0.300000">
		<path id="Vector" d="M0.12 108.05C138.47 159.1 508.95 245.8 884.02 184.24C1259.09 122.68 1541.7 180.64 1636.12 217.32" stroke="#4B4B4B" stroke-opacity="1.000000" stroke-width="0.699869"/>
		<path id="Vector" d="M0.12 92.66C138.47 143.71 508.95 230.41 884.02 168.85C1259.09 107.28 1541.7 165.25 1636.12 201.93" stroke="#4B4B4B" stroke-opacity="1.000000" stroke-width="0.699869"/>
		<path id="Vector" d="M0.12 77.27C138.47 128.32 508.95 215.02 884.02 153.46C1259.09 91.89 1541.7 149.86 1636.12 186.54" stroke="#4B4B4B" stroke-opacity="1.000000" stroke-width="0.699869"/>
		<path id="Vector" d="M0.12 61.88C138.47 112.93 508.95 199.63 884.02 138.07C1259.09 76.5 1541.7 134.47 1636.12 171.15" stroke="#4B4B4B" stroke-opacity="1.000000" stroke-width="0.699869"/>
		<path id="Vector" d="M0.12 46.49C138.47 97.54 508.95 184.24 884.02 122.67C1259.09 61.11 1541.7 119.08 1636.12 155.76" stroke="#4B4B4B" stroke-opacity="1.000000" stroke-width="0.699869"/>
		<path id="Vector" d="M0.12 31.1C138.47 82.15 508.95 168.85 884.02 107.29C1259.09 45.72 1541.7 103.69 1636.12 140.37" stroke="#4B4B4B" stroke-opacity="1.000000" stroke-width="0.699869"/>
		<path id="Vector" d="M0.12 15.71C138.47 66.76 508.95 153.46 884.02 91.89C1259.09 30.33 1541.7 88.3 1636.12 124.98" stroke="#4B4B4B" stroke-opacity="1.000000" stroke-width="0.699869"/>
		<path id="Vector" d="M0.12 0.32C138.47 51.37 508.95 138.06 884.02 76.5C1259.09 14.94 1541.7 72.91 1636.12 109.59" stroke="#4B4B4B" stroke-opacity="1.000000" stroke-width="0.699869"/>
	</g>
</svg>
