<svg width="32.000000" height="32.000000" viewBox="0 0 32 32" fill="none" xmlns="http://www.w3.org/2000/svg" xmlns:xlink="http://www.w3.org/1999/xlink">
	<desc>
			Created with Pixso.
	</desc>
	<defs>
		<clipPath id="clip692_2547">
			<rect id="lucide/folder-open-dot" rx="0.000000" width="30.666666" height="30.666666" transform="translate(0.666667 0.666667)" fill="white" fill-opacity="0"/>
		</clipPath>
	</defs>
	<rect id="lucide/folder-open-dot" rx="0.000000" width="30.666666" height="30.666666" transform="translate(0.666667 0.666667)" fill="#FFFFFF" fill-opacity="0"/>
	<g clip-path="url(#clip692_2547)">
		<path id="Vector" d="M8 18.66L9.93 14.8C10.15 14.35 10.49 13.98 10.91 13.72C11.34 13.46 11.82 13.33 12.32 13.33L26.66 13.33C27.07 13.33 27.47 13.42 27.84 13.6C28.2 13.78 28.52 14.04 28.77 14.36C29.02 14.68 29.2 15.06 29.28 15.46C29.36 15.85 29.35 16.27 29.25 16.66L27.18 24.66C27.03 25.23 26.7 25.74 26.23 26.1C25.76 26.47 25.19 26.66 24.6 26.66L5.33 26.66C4.62 26.66 3.94 26.38 3.44 25.88C2.94 25.38 2.66 24.7 2.66 24L2.66 6.66C2.66 5.19 3.86 4 5.33 4L10.57 4C11.01 4 11.44 4.11 11.83 4.32C12.21 4.53 12.54 4.83 12.78 5.19L13.88 6.8C14.12 7.16 14.45 7.46 14.83 7.67C15.22 7.88 15.65 7.99 16.09 8L24 8C24.7 8 25.38 8.28 25.88 8.78C26.38 9.28 26.66 9.95 26.66 10.66L26.66 13.33M18.66 21.33C17.93 21.33 17.33 20.73 17.33 20C17.33 19.26 17.93 18.66 18.66 18.66C19.4 18.66 20 19.26 20 20C20 20.73 19.4 21.33 18.66 21.33Z" stroke="#000000" stroke-opacity="1.000000" stroke-width="2.666667" stroke-linejoin="round" stroke-linecap="round"/>
	</g>
</svg>
